<?xml version="1.0" standalone="no"?>
<!DOCTYPE svg PUBLIC "-//W3C//DTD SVG 20010904//EN"
 "http://www.w3.org/TR/2001/REC-SVG-20010904/DTD/svg10.dtd">
<svg version="1.0" xmlns="http://www.w3.org/2000/svg"
 width="499.000000pt" height="500.000000pt" viewBox="0 0 499.000000 500.000000"
 preserveAspectRatio="xMidYMid meet">

<g transform="translate(0.000000,500.000000) scale(0.100000,-0.100000)"
fill="#000000" stroke="none">
<path d="M2305 3769 c-144 -14 -300 -47 -441 -94 -151 -51 -284 -111 -284
-129 0 -7 12 -18 26 -25 51 -23 150 -101 224 -175 l74 -76 -154 -227 c-192
-285 -183 -272 -195 -273 -5 0 -39 25 -75 56 -126 107 -252 180 -363 210 -112
30 -273 9 -265 -33 4 -24 60 -49 258 -118 305 -106 414 -156 525 -240 102 -78
164 -166 196 -280 20 -72 18 -273 -4 -355 -67 -249 -262 -426 -552 -501 -81
-22 -111 -24 -290 -23 -163 0 -216 4 -287 21 l-88 20 0 -27 c0 -44 69 -238
126 -356 277 -570 850 -972 1509 -1059 224 -29 521 -15 735 36 209 49 465 159
645 276 225 148 439 366 575 588 50 82 140 262 140 281 0 8 -11 16 -25 20
l-25 6 0 144 c0 109 3 144 13 144 6 0 32 -5 56 -11 57 -13 74 -7 62 23 -120
300 -231 585 -231 590 0 5 56 8 125 8 l125 0 0 31 c0 17 -11 75 -25 129 -126
498 -456 920 -921 1178 -352 195 -772 280 -1189 241z m1855 -1683 c0 -272 2
-315 15 -320 13 -5 15 -26 13 -133 l-3 -128 -50 -11 c-73 -17 -125 -16 -170 5
-39 18 -41 18 -90 -1 -70 -28 -180 -21 -251 15 -91 46 -153 124 -179 224 -45
171 23 347 165 427 50 28 63 31 142 31 l88 0 0 103 0 102 160 0 160 0 0 -314z
m-1802 99 c66 -20 129 -68 167 -130 28 -45 30 -56 34 -166 3 -105 5 -118 22
-122 17 -5 19 -16 19 -140 0 -75 -4 -138 -9 -141 -5 -4 -11 -2 -13 3 -2 6 -25
5 -58 -1 -64 -12 -134 -4 -167 17 -21 14 -26 14 -56 -1 -18 -10 -65 -19 -110
-22 -71 -4 -82 -2 -141 27 -37 18 -75 46 -90 66 -73 95 -73 216 -2 310 l27 34
-40 79 -39 78 56 36 c77 49 93 56 154 72 71 19 182 20 246 1z m878 -20 c37
-24 56 -45 79 -90 l30 -59 3 -263 3 -263 -155 0 -156 0 0 205 c0 113 -4 205
-8 205 -28 0 -32 -30 -32 -217 l0 -193 -113 0 c-102 0 -116 -2 -132 -20 -12
-13 -29 -20 -44 -18 l-26 3 0 365 0 365 175 6 c300 10 319 8 376 -26z m-1438
-982 l-3 -38 -107 -3 -108 -3 0 -49 0 -50 95 0 95 0 0 -35 0 -35 -95 0 -95 0
0 -60 0 -60 110 0 110 0 0 -40 0 -40 -155 0 -155 0 0 225 0 225 156 0 155 0
-3 -37z m392 -148 l0 -184 113 -3 112 -3 0 -35 0 -35 -157 -3 -158 -3 0 226 0
225 45 0 45 0 0 -185z m739 146 c7 -5 14 -19 15 -31 1 -24 7 -28 69 -56 50
-22 68 -59 74 -153 2 -42 9 -85 15 -97 14 -30 6 -68 -15 -72 -32 -6 -65 7 -72
29 -7 21 -7 21 -32 -3 -21 -19 -35 -23 -90 -23 -59 0 -67 3 -89 28 -30 35 -32
94 -4 129 29 37 71 51 140 46 68 -5 77 6 35 47 -29 30 -56 31 -112 5 l-43 -19
-15 30 -16 30 42 18 c24 11 36 22 30 26 -17 10 -155 19 -185 11 -35 -9 -33
-18 9 -40 44 -24 73 -70 81 -130 l7 -46 -132 0 c-87 0 -131 -4 -131 -11 0 -19
58 -69 80 -69 23 0 76 25 82 38 5 14 68 -7 68 -22 0 -22 -57 -65 -96 -72 -145
-27 -246 70 -220 211 8 40 56 101 89 111 32 9 57 34 57 56 0 14 8 18 33 18 17
0 39 5 47 10 19 12 260 13 279 1z m291 -103 l0 -31 23 20 c27 25 61 43 81 43
12 0 16 -10 16 -39 0 -34 -3 -39 -28 -44 -15 -3 -40 -15 -55 -27 -26 -21 -27
-24 -27 -126 l0 -105 -42 3 -43 3 -3 155 c-1 85 0 160 2 167 3 7 21 13 41 13
33 0 35 -2 35 -32z m230 6 l0 -25 30 21 c34 24 95 36 135 26 51 -13 65 -56 65
-204 l0 -133 -42 3 -43 3 -3 114 c-1 64 -8 121 -14 128 -17 21 -66 15 -93 -12
-23 -23 -25 -31 -25 -130 l0 -106 -42 3 -43 3 -3 168 -2 167 40 0 c36 0 40 -2
40 -26z m-1415 -134 l0 -35 -97 -3 -98 -3 0 41 0 41 98 -3 97 -3 0 -35z"/>
<path d="M3930 2163 l0 -148 -26 29 c-36 38 -100 66 -154 66 -196 0 -299 -270
-171 -447 39 -54 118 -93 186 -93 57 0 148 39 166 71 14 26 29 24 29 -5 0 -46
72 -80 124 -60 22 8 23 102 1 110 -13 5 -15 50 -15 315 l0 309 -70 0 -70 0 0
-147z m-70 -184 c60 -36 70 -55 70 -144 0 -91 -10 -113 -64 -139 -103 -49
-206 23 -206 144 0 65 24 110 72 140 42 26 84 25 128 -1z"/>
<path d="M3767 1892 c-41 -46 -6 -132 48 -118 23 6 25 11 25 61 0 43 -4 56
-19 65 -27 14 -35 13 -54 -8z"/>
<path d="M2115 2090 c-33 -11 -68 -26 -78 -34 -18 -14 -18 -16 3 -56 l21 -41
32 20 c115 70 247 39 247 -58 l0 -39 -37 10 c-21 6 -70 8 -109 6 -161 -11
-244 -118 -182 -238 53 -104 202 -121 314 -35 39 30 44 31 44 6 0 -41 75 -74
124 -55 24 9 22 100 -1 113 -16 8 -19 30 -23 154 -5 144 -5 146 -36 183 -45
56 -95 78 -184 81 -54 2 -92 -3 -135 -17z m209 -276 c11 -4 16 -19 16 -46 0
-104 -173 -146 -217 -53 -15 31 -15 36 1 60 26 39 72 56 133 50 28 -3 58 -8
67 -11z"/>
<path d="M3029 2101 c-41 -13 -72 -31 -106 -64 l-33 -31 0 47 0 47 -55 0 -55
0 0 -260 0 -260 65 0 65 0 0 162 c0 156 1 162 25 194 32 42 100 69 137 55 50
-19 58 -53 58 -241 l0 -170 66 0 66 0 -4 213 c-3 191 -5 215 -23 247 -35 60
-123 86 -206 61z"/>
<path d="M2564 1040 c-21 -8 -54 -46 -54 -62 0 -5 38 -8 85 -8 l86 0 -16 30
c-9 17 -27 35 -41 40 -29 12 -32 12 -60 0z"/>
<path d="M2882 914 c-29 -20 -28 -50 3 -70 44 -29 115 6 115 57 0 30 -81 39
-118 13z"/>
<path d="M925 3534 c-191 -26 -272 -50 -377 -111 -128 -75 -230 -213 -258
-350 -7 -31 -10 -102 -8 -158 3 -90 7 -109 36 -168 69 -139 203 -217 632 -367
189 -65 234 -86 273 -128 82 -86 19 -228 -119 -268 -94 -27 -263 -16 -386 26
-112 37 -211 91 -321 174 -43 32 -80 57 -82 55 -1 -2 -42 -69 -89 -149 -98
-167 -100 -145 24 -239 130 -98 284 -166 465 -207 40 -9 141 -18 235 -21 141
-4 179 -2 265 16 137 28 260 89 339 169 116 117 151 208 151 392 0 122 -1 127
-33 192 -47 95 -117 155 -267 228 -66 32 -185 81 -265 108 -306 105 -377 139
-405 191 -19 38 -19 124 0 165 49 102 262 136 460 72 82 -26 205 -92 284 -153
25 -18 48 -32 53 -31 4 2 50 66 103 143 l95 140 -48 43 c-108 99 -272 178
-437 212 -90 19 -264 32 -320 24z"/>
<path d="M601 2328 c-6 -17 -11 -48 -11 -70 0 -32 5 -41 33 -58 125 -77 364
-117 460 -77 75 32 46 51 -213 140 -85 30 -178 63 -207 75 l-51 21 -11 -31z"/>
<path d="M4324 2083 c4 -10 50 -127 103 -261 91 -230 95 -245 85 -280 -17 -57
-46 -82 -93 -82 l-40 0 3 -52 3 -53 45 -3 c104 -8 168 43 212 168 14 41 65
185 112 320 47 135 86 248 86 253 0 4 -27 7 -60 7 l-59 0 -62 -191 c-33 -105
-63 -188 -66 -186 -2 3 -35 88 -72 189 l-68 183 -68 3 c-61 3 -67 1 -61 -15z"/>
</g>
</svg>
